<?xml version="1.0" encoding="iso-8859-1"?>
<!-- Generator: Adobe Illustrator 19.0.0, SVG Export Plug-In . SVG Version: 6.00 Build 0)  -->
<svg version="1.1" id="Layer_1" xmlns="http://www.w3.org/2000/svg" xmlns:xlink="http://www.w3.org/1999/xlink" x="0px" y="0px"
	 viewBox="0 0 460 460" style="enable-background:new 0 0 460 460;" xml:space="preserve">
<g>
	<path style="fill:#940030;" d="M230,0C102.974,0,0,102.975,0,230c0,102.85,67.508,189.932,160.63,219.354l284.231-301.593
		C411.768,61.353,328.049,0,230,0z"/>
	<path style="fill:#121149;" d="M460,230c0-28.979-5.374-56.698-15.156-82.236L378.54,81.46L276.152,195.502l-128.78-128.78
		l-80.924,80.36l115.046,115.046l-58.726,149.351l37.865,37.865C182.522,456.26,205.823,460,230,460
		C357.025,460,460,357.025,460,230z"/>
	<path style="fill:#FF6161;" d="M181.914,167.533l-36.458,22.005c0,0-74.138-33.857-79.009-42.456
		c-10.457-18.421-4.755-45.759,15.024-65.538L181.914,167.533z"/>
	<path style="fill:#FFAD9E;" d="M189.538,145.456l-14.851,29.304L81.472,81.543c19.909-19.909,47.486-25.561,65.899-14.822
		C155.978,71.73,189.538,145.456,189.538,145.456z"/>
	<polygon style="fill:#C2FBFF;" points="248.414,190.6 219.507,233.96 167.497,167.497 189.538,145.456 	"/>
	<polygon style="fill:#71E2F0;" points="226.734,226.733 190.601,248.413 145.456,189.538 167.497,167.497 	"/>
	<polygon style="fill:#C2FBFF;" points="262.863,205.05 241.184,241.183 205.05,262.863 190.597,248.41 248.41,190.597 	"/>
	<path style="fill:#FF6161;" d="M233.96,233.96l52.06,37.607l92.472,106.925c-7.241,7.241-18.551,7.884-26.558,2.016
		l-146.88-117.642L233.96,233.96z"/>
	<path style="fill:#FFAD9E;" d="M378.493,378.492L233.96,233.96l28.906-28.906c0,0,117.642,146.881,117.62,146.888
		C386.377,359.941,385.734,371.251,378.493,378.492z"/>
	<path style="fill:#C2001B;" d="M307.949,99.018l-84.608,84.608l53.033,53.033l84.608-84.608
		c-14.554,14.554-38.23,14.483-52.873-0.16C293.466,137.248,293.395,113.572,307.949,99.018z"/>
	<path style="fill:#FF0F27;" d="M378.54,81.46c-21.301-5.22-53.815,0.782-70.591,17.558c-14.554,14.554-14.483,38.23,0.16,52.873
		c14.643,14.643,38.319,14.714,52.873,0.16C377.759,135.274,383.76,102.761,378.54,81.46z"/>
	<polygon style="fill:#C2FBFF;" points="300.039,220.065 211.424,308.68 167.23,264.486 269.987,190.013 	"/>
	
		<rect x="147.991" y="198.044" transform="matrix(-0.7071 0.7071 -0.7071 -0.7071 514.6672 225.4054)" style="fill:#FFFFFF;" width="125.319" height="42.5"/>
	<polygon style="fill:#FF0F27;" points="226.685,307.561 122.767,411.479 85.644,374.356 130.086,301.63 189.562,270.438 	"/>
	
		<rect x="45.559" y="277.584" transform="matrix(-0.7071 0.7071 -0.7071 -0.7071 418.056 434.5038)" style="fill:#FF6161;" width="146.961" height="52.499"/>
</g>
<g>
</g>
<g>
</g>
<g>
</g>
<g>
</g>
<g>
</g>
<g>
</g>
<g>
</g>
<g>
</g>
<g>
</g>
<g>
</g>
<g>
</g>
<g>
</g>
<g>
</g>
<g>
</g>
<g>
</g>
</svg>
