<?xml version="1.0" encoding="iso-8859-1"?>
<!-- Generator: Adobe Illustrator 19.0.0, SVG Export Plug-In . SVG Version: 6.00 Build 0)  -->
<svg version="1.1" id="Layer_1" xmlns="http://www.w3.org/2000/svg" xmlns:xlink="http://www.w3.org/1999/xlink" x="0px" y="0px"
	 viewBox="0 0 512 512" style="enable-background:new 0 0 512 512;" xml:space="preserve">
<path style="fill:#FFBB64;" d="M158.285,278.187c-2.607-1.264-5.68-1.101-8.136,0.438c-2.456,1.537-3.947,4.231-3.947,7.128v32.996
	c0,17.477-14.22,31.697-31.698,31.697c-17.477,0-31.697-14.22-31.697-31.697c0-4.645-3.764-8.41-8.41-8.41s-8.41,3.764-8.41,8.41
	V502.12c0,4.645,3.764,8.41,8.41,8.41h120.322c4.645,0,8.41-3.764,8.41-8.41V349.777
	C203.128,319.515,185.526,291.415,158.285,278.187z"/>
<path style="fill:#FF9F34;" d="M158.285,278.187c-2.607-1.264-5.68-1.101-8.136,0.438c-2.456,1.537-3.947,4.231-3.947,7.128v19.085
	c8.932,13.042,14.022,28.677,14.022,44.94v85.064v67.277v8.41h34.496c4.645,0,8.41-3.764,8.41-8.41V349.777
	C203.128,319.515,185.526,291.415,158.285,278.187z"/>
<path style="fill:#FFBB64;" d="M278.607,233.336c-2.607-1.264-5.68-1.101-8.136,0.438c-2.456,1.537-3.947,4.231-3.947,7.128v32.996
	c0,17.477-14.22,31.697-31.698,31.697c-17.477,0-31.697-14.22-31.697-31.697c0-4.645-3.764-8.41-8.41-8.41s-8.41,3.764-8.41,8.41
	V502.12c0,4.645,3.764,8.41,8.41,8.41H315.04c4.645,0,8.41-3.764,8.41-8.41V304.926C323.45,274.664,305.848,246.564,278.607,233.336
	z"/>
<path style="fill:#FF9F34;" d="M278.607,233.336c-2.607-1.264-5.68-1.101-8.136,0.438c-2.456,1.537-3.947,4.231-3.947,7.128v20.303
	c8.424,12.793,13.208,27.962,13.208,43.723v53.928V502.12v8.41h35.31c4.645,0,8.41-3.764,8.41-8.41V304.926
	C323.45,274.664,305.848,246.564,278.607,233.336z"/>
<path style="fill:#0099DF;" d="M503.59,60.337c-4.645,0-8.41,3.764-8.41,8.41c0,26.408-20.749,44.851-50.457,44.851H67.275
	c-29.708,0-50.456-18.443-50.456-44.851c0-4.645-3.764-8.41-8.41-8.41S0,64.101,0,68.746v35.881
	c0,37.096,30.179,67.277,67.275,67.277h377.448c37.096,0,67.276-30.18,67.276-67.277V68.746
	C512,64.101,508.236,60.337,503.59,60.337z"/>
<path style="fill:#0081CA;" d="M503.59,60.337c-4.645,0-8.41,3.764-8.41,8.41c0,18.75-10.467,33.476-27.167,40.444
	c-2.357,34.974-31.544,62.713-67.104,62.713h43.814c37.096,0,67.276-30.18,67.276-67.277V68.747
	C512,64.101,508.236,60.337,503.59,60.337z"/>
<path style="fill:#65B9E9;" d="M444.724,1.47H67.277C30.18,1.47,0,31.65,0,68.746c0,35.734,28.293,61.67,67.277,61.67h377.447
	c38.983,0,67.276-25.936,67.276-61.67C512,31.65,481.82,1.47,444.724,1.47z"/>
<path style="fill:#FD4C8D;" d="M274.932,178.631h-80.214c-4.645,0-8.41,3.764-8.41,8.41v86.856
	c0,26.751,21.764,48.516,48.516,48.516s48.518-21.764,48.518-48.516v-86.856C283.342,182.396,279.578,178.631,274.932,178.631z"/>
<path style="fill:#D7326A;" d="M274.932,178.631h-34.76v8.41v68.398v18.458c0,19-10.985,35.475-26.932,43.433
	c6.506,3.247,13.833,5.084,21.585,5.084c26.752,0,48.518-21.764,48.518-48.516v-86.856
	C283.342,182.396,279.578,178.631,274.932,178.631z"/>
<path style="fill:#FFBB64;" d="M399.906,278.169c-2.608-1.25-5.67-1.074-8.116,0.466c-2.447,1.539-3.93,4.226-3.93,7.117v32.996
	c0,17.477-14.448,31.697-32.206,31.697c-17.758,0-32.205-14.22-32.205-31.697c0-4.645-3.764-8.41-8.41-8.41
	c-4.644,0-8.41,3.764-8.41,8.41v183.371c0,4.645,3.765,8.41,8.41,8.41h121.844c4.645,0,8.41-3.764,8.41-8.41V349.777
	C445.294,319.497,427.478,291.39,399.906,278.169z"/>
<path style="fill:#FF9F34;" d="M399.906,278.169c-2.608-1.25-5.67-1.074-8.116,0.466c-2.447,1.539-3.93,4.226-3.93,7.117v18.137
	c9.446,13.228,14.85,29.226,14.85,45.888v55.322v97.019v8.41h34.174c4.645,0,8.41-3.764,8.41-8.41V349.777
	C445.294,319.497,427.478,291.39,399.906,278.169z"/>
<path style="fill:#FD4C8D;" d="M396.27,223.482h-81.23c-4.644,0-8.41,3.764-8.41,8.41v86.856c0,26.751,21.764,48.516,48.516,48.516
	h1.016c26.751,0,48.518-21.764,48.518-48.516v-86.856C404.679,227.247,400.915,223.482,396.27,223.482z"/>
<path style="fill:#D7326A;" d="M396.27,223.482h-34.76v8.41v82.112v4.744c0,19.203-11.216,35.835-27.44,43.693
	c6.378,3.088,13.528,4.823,21.077,4.823h1.016c26.751,0,48.518-21.764,48.518-48.516v-86.856
	C404.679,227.247,400.915,223.482,396.27,223.482z"/>
<path style="fill:#FD4C8D;" d="M154.612,224.604H74.398c-4.645,0-8.41,3.764-8.41,8.41v85.735c0,26.751,21.764,48.516,48.516,48.516
	s48.518-21.764,48.518-48.516v-85.735C163.021,228.368,159.256,224.604,154.612,224.604z"/>
<path style="fill:#D7326A;" d="M154.612,224.604h-35.095v8.41v74.607v11.128c0,18.934-10.909,35.357-26.765,43.346
	c6.547,3.299,13.933,5.169,21.752,5.169c26.753,0,48.518-21.764,48.518-48.516v-85.735
	C163.021,228.368,159.256,224.604,154.612,224.604z"/>
<g>
</g>
<g>
</g>
<g>
</g>
<g>
</g>
<g>
</g>
<g>
</g>
<g>
</g>
<g>
</g>
<g>
</g>
<g>
</g>
<g>
</g>
<g>
</g>
<g>
</g>
<g>
</g>
<g>
</g>
</svg>
