<?xml version="1.0" encoding="iso-8859-1"?>
<!-- Generator: Adobe Illustrator 19.0.0, SVG Export Plug-In . SVG Version: 6.00 Build 0)  -->
<svg version="1.1" id="Layer_1" xmlns="http://www.w3.org/2000/svg" xmlns:xlink="http://www.w3.org/1999/xlink" x="0px" y="0px"
	 viewBox="0 0 512.001 512.001" style="enable-background:new 0 0 512.001 512.001;" xml:space="preserve">
<path style="fill:#FFFFFF;" d="M256.001,116.973C128.214,46.033,8.396,260.54,8.396,260.54s85.905,148.8,247.604,148.8
	s247.604-148.8,247.604-148.8S383.787,46.033,256.001,116.973z"/>
<path style="fill:#FD4C8D;" d="M510.935,256.445c-1.247-2.233-31.082-55.211-77.353-100.304
	c-61.493-59.928-122.786-76.694-177.582-48.681c-54.796-28.011-116.09-11.247-177.582,48.681
	C32.148,201.234,2.313,254.212,1.066,256.445c-1.418,2.538-1.422,5.628-0.01,8.171c1.412,2.541,4.037,4.171,6.941,4.31
	c1.824,0.088,45.288,2.062,98.282-3.44c67.956-7.056,118.268-22.705,149.721-46.553c31.452,23.848,81.764,39.497,149.721,46.553
	c30.479,3.163,57.8,3.855,75.865,3.854c13.346,0,21.642-0.377,22.417-0.414c2.904-0.138,5.53-1.768,6.941-4.31
	C512.357,262.075,512.353,258.983,510.935,256.445z"/>
<g>
	<path style="fill:#D7326A;" d="M510.935,256.445c-1.247-2.233-31.082-55.211-77.353-100.304
		c-50.029-48.756-99.926-68.94-146.299-59.688c33.052,6.31,67.256,26.295,101.521,59.688
		c46.271,45.093,76.104,98.071,77.353,100.304c1.418,2.538,1.422,5.628,0.01,8.171c-1.412,2.541-4.037,4.171-6.941,4.31
		c-0.13,0.006-0.488,0.022-1.026,0.044c8.842,0.275,16.745,0.371,23.388,0.371c13.346,0,21.642-0.377,22.417-0.414
		c2.904-0.138,5.53-1.768,6.941-4.31C512.357,262.075,512.353,258.983,510.935,256.445z"/>
	<path style="fill:#D7326A;" d="M510.82,256.246c-1.555-2.61-4.387-4.181-7.437-4.098c-1.938,0.051-194.429,5.14-247.346,5.364
		c-52.988-0.224-245.48-5.313-247.417-5.364c-3.043-0.086-5.883,1.487-7.437,4.098c-1.555,2.612-1.576,5.859-0.056,8.492
		c0.904,1.566,22.636,38.801,64.847,76.466c24.84,22.166,51.641,39.84,79.66,52.533c35.15,15.925,72.284,23.998,110.37,23.998
		s75.219-8.074,110.37-23.998c28.019-12.693,54.82-30.367,79.66-52.533c42.21-37.665,63.942-74.9,64.845-76.466
		C512.396,262.105,512.375,258.857,510.82,256.246z"/>
</g>
<path style="fill:#B62A5C;" d="M510.82,256.246c-1.555-2.61-4.387-4.181-7.437-4.098c-0.553,0.015-16.604,0.439-40.493,1.043
	c1.281,0.709,2.375,1.752,3.151,3.055c1.555,2.612,1.576,5.859,0.056,8.492c-0.905,1.566-22.636,38.801-64.845,76.466
	c-24.84,22.166-51.641,39.84-79.66,52.533c-28.225,12.787-57.732,20.5-87.98,23.048c7.422,0.625,14.886,0.95,22.389,0.95
	c38.086,0,75.219-8.074,110.37-23.998c28.019-12.693,54.82-30.367,79.66-52.533c42.21-37.665,63.942-74.9,64.845-76.466
	C512.396,262.105,512.375,258.857,510.82,256.246z"/>
<g>
</g>
<g>
</g>
<g>
</g>
<g>
</g>
<g>
</g>
<g>
</g>
<g>
</g>
<g>
</g>
<g>
</g>
<g>
</g>
<g>
</g>
<g>
</g>
<g>
</g>
<g>
</g>
<g>
</g>
</svg>
