<?xml version="1.0" encoding="iso-8859-1"?>
<!-- Generator: Adobe Illustrator 19.0.0, SVG Export Plug-In . SVG Version: 6.00 Build 0)  -->
<svg version="1.1" id="Layer_1" xmlns="http://www.w3.org/2000/svg" xmlns:xlink="http://www.w3.org/1999/xlink" x="0px" y="0px"
	 viewBox="0 0 512.001 512.001" style="enable-background:new 0 0 512.001 512.001;" xml:space="preserve">
<path style="fill:#3C3B41;" d="M311.569,261.026c-2.366-4.015-7.537-5.35-11.552-2.987l-56.712,33.412
	c-0.19,0.113-0.375,0.231-0.555,0.357c-6.588,4.61-10.152,12.148-9.536,20.165c0.615,8.016,5.289,14.922,12.504,18.473l18.819,9.26
	c1.199,0.589,2.467,0.868,3.719,0.868c3.114,0,6.109-1.731,7.576-4.713c1.158-2.353,1.119-4.983,0.118-7.2
	c11.553-6.294,31.814-22.031,29.532-54.257l3.1-1.827C312.597,270.213,313.933,265.04,311.569,261.026z"/>
<path d="M167.53,473.825c-24.213,0-59.732-4.357-110.377-19.273c-4.47-1.316-7.025-6.007-5.709-10.478
	c1.316-4.469,6.006-7.023,10.476-5.709c107.511,31.662,141.753,12.948,142.088,12.756l-0.152,0.093l9.057,14.237
	C210.763,466.819,198.234,473.825,167.53,473.825z"/>
<path style="fill:#D7326A;" d="M419.432,253.324c-1.738-1.89-4.234-2.883-6.801-2.702c-3.128,0.22-6.22,0.387-6.244,0.388
	c-0.025,0.001-0.052,0.003-0.078,0.005c-32.675,2.06-67.111,2.106-102.352,0.144c-2.321-0.125-4.586,0.703-6.273,2.299
	c-1.685,1.597-2.638,3.819-2.633,6.141c0.049,25.551-4.441,44.728-12.32,52.614c-4.142,4.145-12.83,9.211-22.891,15.079
	c-17.234,10.05-38.683,22.557-56.281,40.898c-9.399,9.796-14.771,28.479-14.369,49.978c0.399,21.447,6.417,39.941,16.096,49.471
	l3.589,3.537c8.898,8.763,20.401,13.155,31.911,13.155c11.266,0,22.539-4.207,31.386-12.642l73.616-70.186
	c29.263-27.901,68.738-95.646,75.776-141.177C421.954,257.79,421.17,255.214,419.432,253.324z"/>
<path style="fill:#B62A5C;" d="M419.432,253.324c-1.738-1.89-4.234-2.883-6.801-2.702c-3.128,0.22-6.22,0.387-6.244,0.388
	c-0.025,0.001-0.052,0.003-0.078,0.005c-10.44,0.658-21.079,1.088-31.848,1.335c0.385,0.295,0.754,0.613,1.087,0.975
	c1.738,1.89,2.522,4.466,2.131,7.003c-7.039,45.53-46.515,113.276-75.776,141.177l-73.615,70.186
	c-2.911,2.776-6.09,5.085-9.44,6.945c6.82,3.788,14.376,5.697,21.94,5.697c11.266,0,22.539-4.207,31.386-12.642l73.615-70.186
	c29.263-27.901,68.738-95.646,75.776-141.177C421.954,257.79,421.17,255.214,419.432,253.324z"/>
<path style="fill:#FD4C8D;" d="M487.854,69.374c-16.867-22.433-41.162-36.003-70.277-39.256c-1.882-0.377-4.486-0.718-5.901-0.796
	v-0.001c-107.504-6.779-212.118,8.598-280.946,22.69C56.164,67.277,6.178,84.421,5.683,84.592C2.281,85.767,0,88.969,0,92.567
	v109.528c0,3.54,2.21,6.705,5.536,7.923c0.486,0.178,49.419,17.971,122.95,33.871c92.089,19.914,169.374,25.54,227.278,25.54
	c19.408,0,36.642-0.633,51.524-1.57c0.87-0.046,8.609-0.466,12.157-0.897c0.116-0.015,0.229-0.03,0.345-0.049
	c13.902-2.272,28.365-7.279,34.216-9.903c37.941-17.015,57.995-54.537,57.995-108.511C512,117.744,503.651,90.383,487.854,69.374z
	 M418.545,30.318l-0.003,0.013c-0.222-0.055-0.466-0.11-0.728-0.165C418.058,30.205,418.302,30.255,418.545,30.318z"/>
<path d="M393.618,268.59c-2.485,0.114-4.986,0.21-7.491,0.301C388.674,268.801,391.173,268.701,393.618,268.59z"/>
<path d="M406.993,267.876c-3.657,0.229-7.351,0.431-11.068,0.611C399.748,268.304,403.436,268.099,406.993,267.876z"/>
<path d="M377.378,269.16c-0.349,0.009-0.696,0.018-1.045,0.027C376.684,269.179,377.03,269.169,377.378,269.16z"/>
<path d="M386.127,268.891c-2.856,0.102-5.762,0.193-8.747,0.269C380.305,269.083,383.221,268.998,386.127,268.891z"/>
<path d="M395.925,268.487c-0.757,0.036-1.54,0.069-2.308,0.102C394.386,268.554,395.159,268.524,395.925,268.487z"/>
<path d="M406.993,267.876c0.098-0.006,0.198-0.01,0.296-0.017c0.87-0.046,8.609-0.467,12.156-0.898
	c-3.547,0.431-11.286,0.85-12.157,0.897C407.191,267.865,407.09,267.869,406.993,267.876z"/>
<path style="fill:#3C3B41;" d="M487.854,69.374c-16.867-22.433-41.162-36.003-70.277-39.256c-0.235-0.047-0.481-0.093-0.736-0.139
	c-1.779-0.319-3.928-0.588-5.166-0.657v-0.001c-0.011,0-0.022-0.001-0.034-0.002c-3.87-0.244-7.781-0.452-11.711-0.643
	c-1.325-0.064-2.648-0.118-3.972-0.175c-2.584-0.114-5.178-0.215-7.782-0.305c-1.671-0.057-3.342-0.116-5.01-0.163
	c-2.086-0.061-4.181-0.103-6.276-0.15c-9.957-0.21-19.854-0.252-29.671-0.139c0.161,1.263,0.6,2.494,1.288,3.587
	c1.666,2.646,3.481,7.185,5.294,13.228c6.318,21.058,12.622,60.491,12.622,102.741c0,50.885-6.384,89.696-13.271,105.267
	c-0.681,1.538-1.366,2.858-2.051,3.933c-0.818,1.282-6.818,11.023-7.032,12.853c3.979,0.051,7.88,0.078,11.691,0.078
	c7.157,0,14.012-0.088,20.569-0.243c0.349-0.009,0.697-0.018,1.045-0.027c2.986-0.074,5.891-0.166,8.747-0.269
	c2.505-0.091,5.006-0.188,7.491-0.301c0.768-0.034,1.55-0.066,2.308-0.102c3.717-0.18,7.41-0.382,11.068-0.611
	c0.097-0.006,0.198-0.011,0.295-0.018c0.87-0.046,8.609-0.466,12.157-0.897c0.116-0.015,0.229-0.03,0.345-0.049
	c13.902-2.272,28.365-7.279,34.216-9.903c37.941-17.015,57.995-54.537,57.995-108.511C512,117.744,503.651,90.383,487.854,69.374z
	 M418.443,30.296l0.001-0.004c0.034,0.008,0.069,0.017,0.102,0.026l-0.004,0.013c-0.222-0.055-0.466-0.11-0.728-0.165
	C418.024,30.201,418.234,30.246,418.443,30.296z"/>
<g>
	<path style="fill:#1E1E1D;" d="M487.854,69.374c-16.867-22.433-41.162-36.003-70.277-39.256c-0.235-0.047-0.481-0.093-0.736-0.139
		c-1.779-0.319-3.928-0.588-5.166-0.657v-0.001c-0.011,0-0.022-0.001-0.034-0.002c-3.87-0.244-7.781-0.452-11.711-0.643
		c-1.325-0.064-2.648-0.118-3.972-0.175c-2.584-0.114-5.178-0.215-7.782-0.305c-1.671-0.057-3.342-0.116-5.01-0.163
		c-2.086-0.061-4.181-0.103-6.276-0.15c-9.957-0.21-19.854-0.252-29.671-0.139c0.024,0.187,0.066,0.37,0.101,0.555
		c1.711,0.065,3.424,0.126,5.126,0.201c1.324,0.057,2.647,0.112,3.972,0.175c3.929,0.191,7.841,0.399,11.711,0.643
		c0.011,0.001,0.022,0.001,0.034,0.002v0.001c1.239,0.07,3.387,0.339,5.166,0.657c0.254,0.046,0.501,0.092,0.736,0.139
		c29.114,3.253,53.409,16.822,70.277,39.256c15.796,21.009,24.146,48.37,24.146,79.125c0,53.974-20.054,91.496-57.995,108.511
		c-5.851,2.623-20.314,7.63-34.216,9.903c-0.116,0.019-0.23,0.035-0.345,0.049c-3.547,0.431-11.286,0.85-12.157,0.897
		c-0.097,0.006-0.198,0.011-0.295,0.018c-3.657,0.229-7.351,0.431-11.068,0.611c-0.757,0.036-1.54,0.069-2.308,0.102
		c-1.955,0.09-3.924,0.163-5.894,0.237c-0.072,0.208-0.125,0.393-0.141,0.525c3.979,0.051,7.88,0.078,11.691,0.078
		c7.157,0,14.012-0.088,20.569-0.243c0.349-0.009,0.697-0.018,1.045-0.027c2.986-0.074,5.891-0.167,8.747-0.269
		c2.505-0.091,5.006-0.188,7.491-0.302c0.768-0.034,1.55-0.066,2.308-0.102c3.717-0.18,7.41-0.382,11.068-0.611
		c0.097-0.006,0.198-0.011,0.295-0.018c0.87-0.046,8.609-0.466,12.157-0.897c0.116-0.015,0.23-0.03,0.345-0.049
		c13.902-2.272,28.365-7.279,34.216-9.903c37.941-17.015,57.995-54.537,57.995-108.511C512,117.744,503.651,90.383,487.854,69.374z
		 M418.542,30.331c-0.222-0.055-0.466-0.11-0.728-0.165c0.21,0.034,0.42,0.08,0.629,0.13l0.001-0.004
		c0.034,0.008,0.069,0.017,0.102,0.026L418.542,30.331z"/>
	<path style="fill:#1E1E1D;" d="M374.933,30.293l-0.001,0.004c-0.209-0.051-0.418-0.097-0.629-0.13
		c0.261,0.055,0.505,0.11,0.727,0.165l0.004-0.013C375,30.309,374.967,30.3,374.933,30.293z"/>
</g>
<g>
</g>
<g>
</g>
<g>
</g>
<g>
</g>
<g>
</g>
<g>
</g>
<g>
</g>
<g>
</g>
<g>
</g>
<g>
</g>
<g>
</g>
<g>
</g>
<g>
</g>
<g>
</g>
<g>
</g>
</svg>
