<?xml version="1.0" encoding="iso-8859-1"?>
<!-- Generator: Adobe Illustrator 19.0.0, SVG Export Plug-In . SVG Version: 6.00 Build 0)  -->
<svg version="1.1" id="Layer_1" xmlns="http://www.w3.org/2000/svg" xmlns:xlink="http://www.w3.org/1999/xlink" x="0px" y="0px"
	 viewBox="0 0 512.002 512.002" style="enable-background:new 0 0 512.002 512.002;" xml:space="preserve">
<g>
	<path style="fill:#8A8991;" d="M392.853,1.831c-6.924-3.67-15.158-1.683-19.647,4.715L218.001,216.831
		c-2.767,3.749-1.972,9.03,1.778,11.796c3.064,2.262,7.152,2.139,10.055-0.028l27.68,37.076l-1.893,3.75
		c-2.1,4.159-0.43,9.233,3.73,11.332c1.218,0.615,2.516,0.908,3.795,0.908c3.083,0,6.053-1.697,7.537-4.636L399.603,21.62
		c0.119-0.237,0.228-0.48,0.325-0.728C402.804,13.543,399.829,5.527,392.853,1.831z"/>
	<path style="fill:#8A8991;" d="M228.206,285.33c-3.517-3.056-8.845-2.678-11.901,0.837l-1.398,1.609l-20.733-10.467
		c1.825-3.606,0.847-8.105-2.514-10.585c-3.748-2.767-9.031-1.972-11.796,1.777l-75.159,101.833
		c-27.131-7.406-56.14,2.985-72.321,26.568c-20.778,30.285-13.043,71.828,17.242,92.608c11.222,7.699,24.223,11.703,37.542,11.702
		c4.094,0,8.22-0.378,12.332-1.144c17.491-3.257,32.667-13.129,42.733-27.801c15.635-22.789,15.394-52.725,0.071-75.172
		l86.739-99.868C232.098,293.713,231.723,288.385,228.206,285.33z M103.682,445.821c-3.001,4.374-7.525,7.316-12.739,8.287
		c-5.213,0.972-10.494-0.146-14.867-3.148c-4.374-3.001-7.317-7.523-8.288-12.738c-0.971-5.214,0.147-10.494,3.148-14.868
		c3-4.374,7.525-7.318,12.739-8.288c1.226-0.228,2.455-0.341,3.677-0.341c3.97,0,7.846,1.193,11.191,3.489
		c4.374,3.001,7.317,7.525,8.288,12.739C107.802,436.168,106.684,441.447,103.682,445.821z"/>
</g>
<path style="fill:#C7C6CC;" d="M486.316,472.932c-4.381-5.747-11.048-9.25-18.295-9.608c-11.17-0.551-26.777-2.135-42.108-6.357
	c1.332-3.624,2.375-7.382,3.077-11.259c3.165-17.508-0.678-35.2-10.821-49.818c-16.306-23.498-45.368-33.738-72.46-26.188
	L75.153,7.328c-4.522-6.374-12.768-8.318-19.671-4.611c-6.955,3.731-9.889,11.764-6.975,19.098c0.098,0.247,0.208,0.489,0.328,0.727
	l140.465,274.683c1.52,2.972,4.644,4.764,7.981,4.581l26.273-1.469l84.692,96.329c-15.201,22.525-15.284,52.461,0.469,75.166
	c10.143,14.617,25.37,24.411,42.878,27.576c4,0.723,8.008,1.08,11.988,1.08c11.021,0,21.819-2.744,31.567-8.045
	c8.82,7.725,29.239,19.516,71.77,19.559c0.008,0,0.017,0,0.025,0c11.299,0,21.284-8.014,23.75-19.088
	C492.255,485.915,490.659,478.631,486.316,472.932z M374.763,450.176c-8.996,6.243-21.393,4.001-27.634-4.994
	c-6.241-8.996-4.001-21.393,4.994-27.634c3.444-2.389,7.386-3.535,11.291-3.535c6.294,0,12.492,2.978,16.343,8.53
	C385.999,431.537,383.758,443.934,374.763,450.176z"/>
<g>
</g>
<g>
</g>
<g>
</g>
<g>
</g>
<g>
</g>
<g>
</g>
<g>
</g>
<g>
</g>
<g>
</g>
<g>
</g>
<g>
</g>
<g>
</g>
<g>
</g>
<g>
</g>
<g>
</g>
</svg>
