<?xml version="1.0" encoding="iso-8859-1"?>
<!-- Generator: Adobe Illustrator 19.0.0, SVG Export Plug-In . SVG Version: 6.00 Build 0)  -->
<svg version="1.1" id="Layer_1" xmlns="http://www.w3.org/2000/svg" xmlns:xlink="http://www.w3.org/1999/xlink" x="0px" y="0px"
	 viewBox="0 0 512 512" style="enable-background:new 0 0 512 512;" xml:space="preserve">
<circle style="fill:#AB3CCC;" cx="255.996" cy="255.997" r="255.996"/>
<path style="fill:#681F7B;" d="M512,256c0-12.311-0.888-24.413-2.568-36.26l-61.427-61.427l-85.185-66.34
	C336.178,63.359,298.184,45.455,256,45.455c-75.964,0-138.362,58.038-145.297,132.189l-19.679-15.251l-27.029-4.08l-0.572,3.785
	c-1.454,9.638-2.191,19.498-2.191,29.305c0,55.572,23.401,105.771,60.86,141.285l84.91,85.013h-12.286
	c-13.293,0-24.169,10.876-24.169,24.169v24.674l41.72,41.72c14.213,2.447,28.822,3.736,43.734,3.736
	C397.385,512,512,397.385,512,256z"/>
<path style="fill:#FFFFFF;" d="M450.768,191.403c0-9.807-0.737-19.667-2.191-29.305l-0.572-3.785l-27.029,4.08l0.568,3.785
	c0.572,3.789,1.008,7.619,1.321,11.467h-21.568c-6.935-74.151-69.333-132.189-145.297-132.189s-138.362,58.039-145.296,132.189
	H89.135c0.312-3.848,0.749-7.679,1.322-11.469l0.567-3.782l-27.029-4.08l-0.572,3.785c-1.454,9.638-2.191,19.498-2.191,29.305
	c0,98.13,72.952,179.529,167.468,192.846v33.452h-33.983c-13.293,0-24.169,10.876-24.169,24.169v24.674h170.906V441.87
	c0-13.293-10.876-24.169-24.169-24.169h-33.983v-33.452C377.816,370.932,450.768,289.534,450.768,191.403z M89.138,205.162h21.564
	c6.935,74.151,69.333,132.189,145.297,132.189s138.362-58.038,145.297-132.189h21.564c-7.022,85.91-79.173,153.673-166.862,153.673
	S96.16,291.071,89.138,205.162z"/>
<path style="fill:#D8D8DA;" d="M450.768,191.403c0-9.807-0.737-19.667-2.191-29.305l-0.572-3.785l-27.029,4.08l0.568,3.785
	c0.572,3.789,1.008,7.619,1.321,11.467h-21.568c-6.925-74.057-69.177-132.039-145.01-132.186v291.887
	c75.833-0.146,138.084-58.129,145.01-132.186h21.564c-7.013,85.815-79.015,153.522-166.574,153.669v107.713h85.165v-24.674
	c0-13.293-10.876-24.169-24.169-24.169H283.3v-33.452C377.816,370.932,450.768,289.534,450.768,191.403z"/>
<circle style="fill:#49BBEE;" cx="255.996" cy="191.402" r="118.511"/>
<path style="fill:#009AE5;" d="M255.999,72.895v237.018c65.45,0,118.509-53.058,118.509-118.509
	C374.509,125.953,321.451,72.895,255.999,72.895z"/>
<g>
	<path style="fill:#CAE8F9;" d="M277.036,74.757L139.353,212.44c2.658,14.836,8.081,28.711,15.711,41.082L318.118,90.468
		C305.747,82.839,291.872,77.415,277.036,74.757z"/>
	<path style="fill:#CAE8F9;" d="M332.692,101.064L165.66,268.096c4.341,5.108,9.106,9.844,14.244,14.152l166.94-166.94
		C342.536,110.17,337.8,105.404,332.692,101.064z"/>
</g>
<g>
	<path style="fill:#A3D9F6;" d="M318.118,90.469c-12.37-7.63-26.245-13.054-41.082-15.711l-21.037,21.037v56.793L318.118,90.469z"/>
	<path style="fill:#A3D9F6;" d="M346.844,115.308c-4.308-5.138-9.043-9.903-14.152-14.244l-76.691,76.691v28.396L346.844,115.308z"
		/>
</g>
<g>
</g>
<g>
</g>
<g>
</g>
<g>
</g>
<g>
</g>
<g>
</g>
<g>
</g>
<g>
</g>
<g>
</g>
<g>
</g>
<g>
</g>
<g>
</g>
<g>
</g>
<g>
</g>
<g>
</g>
</svg>
