<?xml version="1.0" encoding="iso-8859-1"?>
<!-- Generator: Adobe Illustrator 19.0.0, SVG Export Plug-In . SVG Version: 6.00 Build 0)  -->
<svg version="1.1" id="Layer_1" xmlns="http://www.w3.org/2000/svg" xmlns:xlink="http://www.w3.org/1999/xlink" x="0px" y="0px"
	 viewBox="0 0 512 512" style="enable-background:new 0 0 512 512;" xml:space="preserve">
<circle style="fill:#FFD55C;" cx="256" cy="256" r="256"/>
<polygon style="fill:#E6E5E5;" points="300.019,411.278 211.948,411.278 219.949,366.381 291.999,366.381 "/>
<polygon style="fill:#D9D8D7;" points="300.019,411.278 291.999,366.381 219.949,366.381 277.567,411.278 "/>
<g>
	<path style="fill:#FFFFFF;" d="M323.6,417.865H188.366v-2.458c0-1.057,0.4-2.111,1.212-2.923c0.806-0.806,1.86-1.206,2.917-1.206
		h126.966c1.064,0,2.121,0.4,2.927,1.206c0.806,0.813,1.212,1.863,1.212,2.923L323.6,417.865L323.6,417.865z"/>
	<path style="fill:#FFFFFF;" d="M414.555,337.349v21.322c0,4.245-3.485,7.71-7.733,7.71H105.158c-4.222,0-7.713-3.465-7.713-7.71
		v-21.322H414.555z"/>
</g>
<path style="fill:#242D3C;" d="M414.555,337.349V134.891c0-4.231-3.482-7.723-7.736-7.723h-301.67c-4.225,0-7.697,3.492-7.697,7.723
	v202.458H414.555z"/>
<rect x="113.466" y="143.195" style="fill:#FFFFFF;" width="285.035" height="178.136"/>
<rect x="120.35" y="150.066" style="fill:#F2F2F2;" width="219.4" height="164.362"/>
<g>
	<rect x="120.35" y="150.066" style="fill:#D9D8D7;" width="271.261" height="11.479"/>
	<rect x="120.35" y="170.334" style="fill:#D9D8D7;" width="28.137" height="144.103"/>
</g>
<rect x="124.941" y="174.922" style="fill:#FFFFFF;" width="18.954" height="78.419"/>
<rect x="120.35" y="161.554" style="fill:#242D3C;" width="28.137" height="8.78"/>
<rect x="171.801" y="161.554" style="fill:#CCCBCA;" width="167.943" height="8.78"/>
<rect x="339.737" y="170.334" style="fill:#D9D8D7;" width="51.877" height="61.922"/>
<rect x="344.328" y="174.922" style="fill:#FFFFFF;" width="42.694" height="32.137"/>
<rect x="339.737" y="241.04" style="fill:#D9D8D7;" width="51.877" height="73.398"/>
<rect x="344.328" y="245.628" style="fill:#FFFFFF;" width="42.694" height="52.845"/>
<g>
	<rect x="339.737" y="161.554" style="fill:#242D3C;" width="51.877" height="8.78"/>
	<rect x="339.737" y="232.25" style="fill:#242D3C;" width="51.877" height="8.78"/>
</g>
<g>
	<rect x="348.292" y="249.592" style="fill:#D9D8D7;" width="34.803" height="2.768"/>
	<rect x="348.292" y="255.604" style="fill:#D9D8D7;" width="34.803" height="2.768"/>
	<rect x="348.292" y="178.87" style="fill:#D9D8D7;" width="34.803" height="2.775"/>
	<rect x="348.292" y="184.891" style="fill:#D9D8D7;" width="34.803" height="2.775"/>
	<rect x="348.292" y="190.917" style="fill:#D9D8D7;" width="34.803" height="2.775"/>
</g>
<rect x="329.034" y="170.334" style="fill:#CCCBCA;" width="10.709" height="144.103"/>
<rect x="155.384" y="177.218" style="fill:#FFFFFF;" width="166.78" height="130.335"/>
<rect x="301.551" y="286.951" style="fill:#FF6D3B;" width="13.018" height="13.018"/>
<rect x="282.327" y="286.951" style="fill:#242D3C;" width="13.018" height="13.018"/>
<rect x="263.069" y="286.951" style="fill:#21D8DE;" width="13.015" height="13.018"/>
<rect x="131.257" y="266.042" style="fill:#242D3C;" width="12.638" height="12.638"/>
<rect x="124.941" y="259.733" style="fill:#FF6D3B;" width="12.632" height="12.632"/>
<g>
	<rect x="130.302" y="180.29" style="fill:#D9D8D7;" width="8.228" height="8.225"/>
	<rect x="130.302" y="193.876" style="fill:#D9D8D7;" width="8.228" height="8.225"/>
	<rect x="130.302" y="207.466" style="fill:#D9D8D7;" width="8.228" height="8.225"/>
</g>
<polygon style="fill:#FF6D3B;" points="179.051,266.947 209.497,214.214 239.95,266.947 "/>
<circle style="fill:#242D3C;" cx="272.087" cy="240.581" r="26.37"/>
<rect x="228.748" y="197.232" style="fill:#21D8DE;" width="43.338" height="43.338"/>
<path style="fill:#FFFFFF;" d="M272.097,214.214c-14.561,0-26.37,11.806-26.37,26.366h26.37V214.214z"/>
<g>
</g>
<g>
</g>
<g>
</g>
<g>
</g>
<g>
</g>
<g>
</g>
<g>
</g>
<g>
</g>
<g>
</g>
<g>
</g>
<g>
</g>
<g>
</g>
<g>
</g>
<g>
</g>
<g>
</g>
</svg>
