<?xml version="1.0" encoding="iso-8859-1"?>
<!-- Generator: Adobe Illustrator 19.0.0, SVG Export Plug-In . SVG Version: 6.00 Build 0)  -->
<svg version="1.1" id="Layer_1" xmlns="http://www.w3.org/2000/svg" xmlns:xlink="http://www.w3.org/1999/xlink" x="0px" y="0px"
	 viewBox="0 0 512 512" style="enable-background:new 0 0 512 512;" xml:space="preserve">
<circle style="fill:#3E4959;" cx="256" cy="256" r="256"/>
<rect x="137.441" y="102.4" style="fill:#FFFFFF;" width="191.534" height="270.898"/>
<rect x="171.011" y="185.212" style="fill:#21D8DE;" width="124.399" height="8.033"/>
<g>
	<rect x="171.011" y="222.34" style="fill:#242D3C;" width="124.399" height="3.006"/>
	<rect x="171.011" y="230.879" style="fill:#242D3C;" width="124.399" height="3.006"/>
	<rect x="171.011" y="239.385" style="fill:#242D3C;" width="124.399" height="3.006"/>
	<rect x="171.011" y="247.94" style="fill:#242D3C;" width="124.399" height="3.013"/>
	<rect x="209.028" y="256.462" style="fill:#242D3C;" width="48.386" height="3.006"/>
	<rect x="171.011" y="213.818" style="fill:#242D3C;" width="124.399" height="3.006"/>
	<rect x="171.011" y="205.295" style="fill:#242D3C;" width="124.399" height="3.006"/>
</g>
<rect x="137.441" y="102.4" style="fill:#21D8DE;" width="191.534" height="60.195"/>
<rect x="209.292" y="112.442" style="fill:#FFFFFF;" width="97.974" height="8.027"/>
<g>
	<rect x="209.292" y="149.537" style="fill:#242D3C;" width="17.335" height="3.013"/>
	<rect x="209.292" y="141.025" style="fill:#242D3C;" width="34.674" height="3.006"/>
	<rect x="209.292" y="132.492" style="fill:#242D3C;" width="34.674" height="3.013"/>
</g>
<circle style="fill:#FFFFFF;" cx="167.536" cy="132.492" r="20.067"/>
<polygon style="fill:#21D8DE;" points="156.391,132.496 167.543,143.644 167.543,121.354 "/>
<polygon style="fill:#242D3C;" points="178.685,132.496 167.543,143.644 167.543,121.354 "/>
<rect x="250.054" y="314.897" style="fill:#21D8DE;" width="157.858" height="94.71"/>
<polygon style="fill:#16C6CC;" points="249.991,409.6 328.978,351.199 407.965,409.6 "/>
<polygon style="fill:#1BB6BA;" points="407.915,314.897 407.915,314.93 348.92,365.964 328.968,351.199 309.017,365.964 
	250.054,314.963 250.054,314.897 "/>
<polygon style="fill:#13A8AD;" points="348.92,365.964 328.968,383.207 309.017,365.964 328.968,351.199 "/>
<polygon style="fill:#16C6CC;" points="249.991,314.89 328.978,373.291 407.965,314.89 "/>
<polygon style="fill:#FFFFFF;" points="121.641,217.676 116.277,206.954 109.38,206.954 104.035,217.676 "/>
<rect x="104.035" y="217.676" style="fill:#06B2B8;" width="17.606" height="191.917"/>
<rect x="104.035" y="217.676" style="fill:#21D8DE;" width="8.8" height="191.917"/>
<polygon style="fill:#242D3C;" points="116.277,206.954 112.841,200.07 109.38,206.954 "/>
<rect x="104.035" y="388.591" style="fill:#FFFFFF;" width="17.606" height="6.227"/>
<rect x="314.104" y="228.187" style="fill:#06B2B8;" width="93.868" height="62.573"/>
<circle style="fill:#FFFFFF;" cx="361.043" cy="258.048" r="20.067"/>
<polygon style="fill:#21D8DE;" points="349.884,258.038 361.029,269.18 361.029,246.896 "/>
<polygon style="fill:#242D3C;" points="372.178,258.038 361.029,269.18 361.029,246.896 "/>
<g>
	<rect x="384.297" y="285.663" style="fill:#FFFFFF;" width="9.563" height="1.549"/>
	<rect x="384.297" y="281.27" style="fill:#FFFFFF;" width="19.119" height="1.549"/>
	<rect x="384.297" y="276.876" style="fill:#FFFFFF;" width="19.119" height="1.549"/>
</g>
<g>
</g>
<g>
</g>
<g>
</g>
<g>
</g>
<g>
</g>
<g>
</g>
<g>
</g>
<g>
</g>
<g>
</g>
<g>
</g>
<g>
</g>
<g>
</g>
<g>
</g>
<g>
</g>
<g>
</g>
</svg>
