<?xml version="1.0" encoding="iso-8859-1"?>
<!-- Generator: Adobe Illustrator 19.0.0, SVG Export Plug-In . SVG Version: 6.00 Build 0)  -->
<svg version="1.1" id="Layer_1" xmlns="http://www.w3.org/2000/svg" xmlns:xlink="http://www.w3.org/1999/xlink" x="0px" y="0px"
	 viewBox="0 0 512 512" style="enable-background:new 0 0 512 512;" xml:space="preserve">
<circle style="fill:#3E4959;" cx="256" cy="256" r="256"/>
<path style="fill:#FFFFFF;" d="M294.806,173.475L294.806,173.475c-0.974-1.906-0.733-4.169,0.654-6.213
	c1.47-2.174,1.794-5.46,1.09-6.834l-2.292-4.489c-0.723-1.414-0.165-3.135,1.252-3.865c1.404-0.717,3.131-0.162,3.848,1.259
	l2.302,4.489c1.741,3.419,1.12,8.859-1.45,12.658c-0.132,0.202-0.201,0.34-0.238,0.439c0.238,0.185,0.951,0.548,2.425,0.595
	l9.335,0.304c3.174,0.096,5.662,1.444,6.811,3.696c1.15,2.24,0.789,5.044-0.998,7.677l-5.232,7.736
	c-0.74,1.09-0.717,1.728-0.651,1.863c0.073,0.132,0.565,0.529,1.889,0.568l9.332,0.294c3.181,0.099,5.672,1.447,6.815,3.69
	c1.146,2.256,0.786,5.057-1.004,7.693l-5.229,7.736c-0.743,1.09-0.714,1.728-0.647,1.86c0.073,0.149,0.571,0.532,1.883,0.568
	l9.338,0.304c3.184,0.102,5.662,1.447,6.815,3.69c1.143,2.253,0.783,5.057-1.004,7.683l-5.229,7.736
	c-0.74,1.097-0.71,1.728-0.641,1.86c0.066,0.142,0.558,0.529,1.886,0.575l9.335,0.294c3.528,0.109,6.227,1.486,7.402,3.772
	c0.971,1.903,0.737,4.179-0.647,6.217c-1.239,1.823-1.381,6.273,0.271,9.513l29.729,58.203c0.717,1.404,0.155,3.138-1.255,3.861
	c-1.417,0.717-3.135,0.155-3.861-1.259l-29.729-58.196c-2.481-4.862-2.444-11.591,0.089-15.34c0.135-0.188,0.205-0.344,0.231-0.439
	c-0.225-0.185-0.948-0.548-2.418-0.595l-9.335-0.291c-3.181-0.096-5.662-1.447-6.818-3.703c-1.143-2.246-0.77-5.047,1.014-7.677
	l5.229-7.739c0.737-1.1,0.71-1.728,0.641-1.863c-0.066-0.126-0.568-0.525-1.883-0.565l-9.342-0.301
	c-3.174-0.092-5.662-1.453-6.808-3.7c-1.153-2.249-0.783-5.044,0.998-7.683l5.236-7.733c0.75-1.093,0.714-1.724,0.644-1.863
	c-0.069-0.132-0.568-0.529-1.883-0.571l-9.332-0.294c-3.184-0.099-5.662-1.444-6.815-3.693c-1.153-2.246-0.793-5.051,1.001-7.69
	l5.229-7.723c0.747-1.093,0.717-1.741,0.654-1.866c-0.069-0.139-0.571-0.532-1.893-0.565l-9.338-0.297
	C298.681,177.129,295.976,175.761,294.806,173.475z"/>
<rect x="338.773" y="286.89" transform="matrix(0.4548 0.8906 -0.8906 0.4548 461.5439 -167.474)" style="fill:#CCCBCA;" width="57.569" height="12.684"/>
<path style="fill:#FFFFFF;" d="M361.954,310.477h38.387V127.485l0,0c-9.827,0-19.644,3.743-27.143,11.238
	c-7.502,7.495-11.244,17.325-11.244,27.149V310.477z"/>
<g>
	<rect x="354.965" y="264.489" style="fill:#D9D8D7;" width="45.367" height="65.13"/>
	<rect x="389.814" y="173.921" style="fill:#D9D8D7;" width="2.441" height="47.986"/>
</g>
<polygon style="fill:#FFFFFF;" points="149.805,318.305 127.587,296.104 263.379,180.052 275.727,192.39 "/>
<polygon style="fill:#D9D8D7;" points="181.869,292.296 158.888,269.319 127.587,296.104 152.83,321.328 "/>
<g>
	<rect x="269.675" y="192.38" style="fill:#FFFFFF;" width="6.055" height="6.061"/>
	<rect x="263.63" y="198.458" style="fill:#FFFFFF;" width="6.055" height="6.052"/>
	<rect x="257.559" y="204.493" style="fill:#FFFFFF;" width="6.055" height="6.058"/>
	<rect x="251.508" y="210.548" style="fill:#FFFFFF;" width="6.052" height="6.065"/>
	<rect x="245.463" y="216.593" style="fill:#FFFFFF;" width="6.058" height="6.061"/>
	<rect x="239.385" y="222.67" style="fill:#FFFFFF;" width="6.055" height="6.052"/>
	<rect x="233.34" y="228.715" style="fill:#FFFFFF;" width="6.058" height="6.052"/>
	<rect x="227.288" y="234.76" style="fill:#FFFFFF;" width="6.048" height="6.058"/>
	<rect x="221.23" y="240.822" style="fill:#FFFFFF;" width="6.061" height="6.055"/>
	<rect x="215.172" y="246.883" style="fill:#FFFFFF;" width="6.045" height="6.048"/>
	<rect x="209.127" y="252.928" style="fill:#FFFFFF;" width="6.055" height="6.055"/>
	<rect x="203.082" y="258.973" style="fill:#FFFFFF;" width="6.058" height="6.052"/>
	<rect x="197.004" y="265.051" style="fill:#FFFFFF;" width="6.045" height="6.052"/>
	<polygon style="fill:#FFFFFF;" points="197.014,277.16 190.966,277.147 190.953,271.096 197.024,271.096 	"/>
	<rect x="184.908" y="277.141" style="fill:#FFFFFF;" width="6.058" height="6.058"/>
	<rect x="125.622" y="173.921" style="fill:#FFFFFF;" width="13.963" height="90.568"/>
</g>
<rect x="120.379" y="264.489" style="fill:#D9D8D7;" width="24.427" height="36.633"/>
<path style="fill:#FF6D3B;" d="M404.255,291.487c-6.861-6.867-15.859-10.299-24.847-10.299H132.595
	c-8.998,0-17.993,3.432-24.85,10.299c-6.861,6.857-10.296,15.855-10.296,24.847c0,8.991,3.435,17.989,10.296,24.853
	c6.857,6.867,15.855,10.296,24.85,10.296h246.814c8.991,0,17.986-3.429,24.847-10.296c6.864-6.864,10.299-15.862,10.299-24.853
	C414.555,307.342,411.119,298.344,404.255,291.487z"/>
<path style="fill:#242D3C;" d="M390.18,316.337c0,5.956-4.826,10.782-10.775,10.782s-10.785-4.826-10.785-10.782
	c0-5.939,4.836-10.775,10.785-10.775S390.18,310.398,390.18,316.337z"/>
<path style="fill:#FFFFFF;" d="M384.086,316.337c0,2.586-2.101,4.691-4.681,4.691c-2.59,0-4.694-2.104-4.694-4.691
	c0-2.58,2.104-4.691,4.694-4.691C381.988,311.646,384.086,313.754,384.086,316.337z"/>
<path style="fill:#242D3C;" d="M143.373,316.337c0,5.956-4.833,10.782-10.782,10.782c-5.952,0-10.782-4.826-10.782-10.782
	c0-5.939,4.829-10.775,10.782-10.775C138.541,305.562,143.373,310.398,143.373,316.337z"/>
<path style="fill:#FFFFFF;" d="M137.279,316.337c0,2.586-2.104,4.691-4.684,4.691c-2.59,0-4.687-2.104-4.687-4.691
	c0-2.58,2.098-4.691,4.687-4.691C135.175,311.646,137.279,313.754,137.279,316.337z"/>
<g>
</g>
<g>
</g>
<g>
</g>
<g>
</g>
<g>
</g>
<g>
</g>
<g>
</g>
<g>
</g>
<g>
</g>
<g>
</g>
<g>
</g>
<g>
</g>
<g>
</g>
<g>
</g>
<g>
</g>
</svg>
